<svg preserveAspectRatio="none" overflow="visible" style="display: block;" width="375" height="233" viewBox="0 0 375 233" fill="none" xmlns="http://www.w3.org/2000/svg">
<g id="top_blur" clip-path="url(#clip0_0_28)">
<rect width="375" height="233" fill="black"/>
<rect id="Rectangle 4" width="375" height="233" transform="matrix(1 0 0 -1 0 233)" fill="url(#paint0_linear_0_28)"/>
<g id="Vector">
<path d="M-175.96 107.286C-176.664 103.19 -177.56 99.03 -178.52 95.19C-179.352 92.374 -180.056 89.238 -180.568 86.742H-180.696C-181.208 89.238 -181.912 92.31 -182.68 95.254C-183.576 99.094 -184.408 103.19 -185.176 107.286H-175.96ZM-143.768 126.998H-173.464C-173.528 125.014 -173.784 122.006 -174.232 118.486H-187.032C-187.544 122.006 -187.864 125.014 -187.928 126.998H-215C-210.84 114.838 -203.416 85.526 -202.136 78.998H-157.272C-155.736 85.654 -148.12 114.838 -143.768 126.998Z" fill="white" fill-opacity="0.1"/>
<path d="M-105.939 78.998H-79.891C-80.147 83.222 -80.211 87.446 -80.211 93.718C-80.211 97.494 -80.083 103.574 -80.083 107.286C-80.083 122.198 -86.611 128.15 -112.403 128.15C-138.195 128.15 -144.723 122.198 -144.723 107.286C-144.723 103.574 -144.595 97.494 -144.595 93.718C-144.595 87.446 -144.723 83.222 -144.915 78.998H-117.779C-117.971 86.934 -118.163 98.198 -118.163 105.11C-118.163 109.27 -116.243 111.126 -111.763 111.126C-107.347 111.126 -105.683 109.27 -105.683 105.11C-105.683 98.198 -105.875 86.934 -105.939 78.998Z" fill="white" fill-opacity="0.1"/>
<path d="M-44.1505 111.894C-39.5425 111.894 -37.4305 110.166 -37.4305 101.974C-37.4305 93.91 -39.4785 92.374 -44.1505 92.374C-46.0705 92.374 -47.9265 92.438 -49.7825 92.502C-49.8465 95.83 -49.9105 99.35 -49.9105 102.742C-49.9105 106.39 -49.9105 109.27 -49.9105 111.702C-47.9905 111.894 -46.1985 111.894 -44.1505 111.894ZM-75.8305 78.998H-40.3105C-19.7665 78.998 -11.0625 83.158 -11.0625 101.078C-11.0625 121.878 -18.5505 126.998 -40.6945 126.998H-75.8305C-75.7025 120.214 -75.6385 113.238 -75.6385 103.062C-75.6385 92.886 -75.7025 85.59 -75.8305 78.998Z" fill="white" fill-opacity="0.1"/>
<path d="M18.57 126.998H-8.37399C-8.18199 120.022 -8.18201 113.174 -8.18201 102.998C-8.18201 92.822 -8.18199 85.91 -8.37399 78.998H18.57C18.378 85.91 18.378 92.758 18.378 102.934C18.378 113.046 18.442 119.958 18.57 126.998Z" fill="white" fill-opacity="0.1"/>
<path d="M90.6695 101.974C90.6695 119.958 81.8375 128.086 55.5975 128.086C29.4215 128.086 21.1655 119.958 21.1655 101.974C21.1655 84.054 30.9575 77.91 55.6615 77.91C80.3655 77.91 90.6695 84.054 90.6695 101.974ZM55.7255 112.086C61.0375 112.086 63.1495 109.334 63.1495 101.91C63.1495 94.806 61.0375 92.438 55.7255 92.438C50.4135 92.438 48.3015 94.806 48.3015 101.91C48.3015 109.398 50.4135 112.086 55.7255 112.086Z" fill="white" fill-opacity="0.1"/>
<path d="M170.341 126.998H146.276C146.532 121.558 146.724 117.206 146.852 111.254C146.852 108.438 147.045 105.238 147.237 101.974L146.852 101.91C145.764 105.43 144.676 108.822 143.716 111.19L137.06 126.998H124.068L117.092 110.486C116.196 108.182 115.045 104.79 114.021 101.398L113.701 101.526C113.892 104.662 114.084 107.67 114.148 110.934C114.212 117.078 114.34 121.814 114.532 126.998H93.6045C93.9245 120.086 93.9885 113.11 93.9885 102.934C93.9885 92.438 93.9245 85.27 93.6685 78.998H126.5C127.652 83.286 129.253 88.278 131.237 94.358C131.813 96.598 132.581 99.542 133.349 102.422H133.477C134.244 99.478 135.013 96.598 135.589 94.358C137.508 88.534 139.237 83.158 140.325 78.998H170.213C170.085 85.27 169.956 92.438 169.956 102.934C169.956 113.11 169.957 120.086 170.341 126.998Z" fill="white" fill-opacity="0.1"/>
<path d="M210.583 107.286C209.879 103.19 208.983 99.03 208.023 95.19C207.191 92.374 206.486 89.238 205.974 86.742H205.846C205.334 89.238 204.63 92.31 203.862 95.254C202.966 99.094 202.135 103.19 201.367 107.286H210.583ZM242.775 126.998H213.078C213.014 125.014 212.758 122.006 212.31 118.486H199.51C198.998 122.006 198.679 125.014 198.615 126.998H171.542C175.702 114.838 183.126 85.526 184.406 78.998H229.271C230.807 85.654 238.423 114.838 242.775 126.998Z" fill="white" fill-opacity="0.1"/>
<path d="M280.347 99.606V98.198C280.347 93.974 278.427 92.438 274.076 92.438C269.275 92.502 267.227 94.294 267.227 102.166C267.227 109.078 269.276 111.766 274.268 111.766C278.748 111.766 280.476 109.526 280.476 106.134C280.476 105.494 280.411 104.854 280.347 104.214C284.123 104.278 289.116 104.278 293.404 104.278C297.692 104.278 301.979 104.278 306.203 104.214C306.331 105.622 306.396 106.966 306.396 108.182C306.396 123.478 297.116 128.086 273.18 128.086C248.284 128.086 240.156 120.982 240.156 101.782C240.156 83.99 249.884 77.91 273.692 77.91C297.692 77.91 306.268 82.006 306.268 94.55C306.268 96.086 306.14 97.814 305.948 99.606C301.724 99.542 297.436 99.542 293.276 99.542C289.052 99.542 284.059 99.542 280.347 99.606Z" fill="white" fill-opacity="0.1"/>
<path d="M346.902 78.998H375.766C371.158 86.742 365.974 100.374 357.27 103.574C364.054 104.918 366.806 108.246 368.726 112.918C372.95 120.982 374.806 124.95 376.022 126.998H350.23C347.222 126.998 346.134 126.358 345.366 124.374C343.126 119.958 339.862 113.302 336.918 109.718H336.086C336.15 116.054 336.214 121.75 336.47 126.998H309.526C309.782 119.894 309.91 113.238 309.91 102.998C309.91 92.822 309.782 85.974 309.526 78.998H336.47C336.15 85.142 336.086 92.374 336.086 99.99H336.662C338.07 97.43 339.542 94.87 340.758 92.63C343.958 86.486 345.622 82.134 346.902 78.998Z" fill="white" fill-opacity="0.1"/>
<path d="M178.04 53.286C177.336 49.19 176.44 45.03 175.48 41.19C174.648 38.374 173.944 35.238 173.432 32.742H173.304C172.792 35.238 172.088 38.31 171.32 41.254C170.424 45.094 169.592 49.19 168.824 53.286H178.04ZM210.232 72.998H180.536C180.472 71.014 180.216 68.006 179.768 64.486H166.968C166.456 68.006 166.136 71.014 166.072 72.998H139C143.16 60.838 150.584 31.526 151.864 24.998H196.728C198.264 31.654 205.88 60.838 210.232 72.998Z" fill="white" fill-opacity="0.1"/>
<path d="M248.061 24.998H274.109C273.853 29.222 273.789 33.446 273.789 39.718C273.789 43.494 273.917 49.574 273.917 53.286C273.917 68.198 267.389 74.15 241.597 74.15C215.805 74.15 209.277 68.198 209.277 53.286C209.277 49.574 209.405 43.494 209.405 39.718C209.405 33.446 209.277 29.222 209.085 24.998H236.221C236.029 32.934 235.837 44.198 235.837 51.11C235.837 55.27 237.757 57.126 242.237 57.126C246.653 57.126 248.317 55.27 248.317 51.11C248.317 44.198 248.125 32.934 248.061 24.998Z" fill="white" fill-opacity="0.1"/>
<path d="M309.849 57.894C314.457 57.894 316.57 56.166 316.57 47.974C316.57 39.91 314.521 38.374 309.849 38.374C307.929 38.374 306.074 38.438 304.218 38.502C304.154 41.83 304.089 45.35 304.089 48.742C304.089 52.39 304.089 55.27 304.089 57.702C306.009 57.894 307.801 57.894 309.849 57.894ZM278.169 24.998H313.69C334.234 24.998 342.938 29.158 342.938 47.078C342.938 67.878 335.449 72.998 313.305 72.998H278.169C278.297 66.214 278.362 59.238 278.362 49.062C278.362 38.886 278.297 31.59 278.169 24.998Z" fill="white" fill-opacity="0.1"/>
<path d="M372.57 72.998H345.626C345.818 66.022 345.818 59.174 345.818 48.998C345.818 38.822 345.818 31.91 345.626 24.998H372.57C372.378 31.91 372.378 38.758 372.378 48.934C372.378 59.046 372.442 65.958 372.57 72.998Z" fill="white" fill-opacity="0.1"/>
<path d="M444.669 47.974C444.669 65.958 435.838 74.086 409.598 74.086C383.422 74.086 375.166 65.958 375.166 47.974C375.166 30.054 384.957 23.91 409.661 23.91C434.365 23.91 444.669 30.054 444.669 47.974ZM409.726 58.086C415.038 58.086 417.15 55.334 417.15 47.91C417.15 40.806 415.038 38.438 409.726 38.438C404.414 38.438 402.302 40.806 402.302 47.91C402.302 55.398 404.414 58.086 409.726 58.086Z" fill="white" fill-opacity="0.1"/>
<path d="M524.341 72.998H500.276C500.532 67.558 500.724 63.206 500.852 57.254C500.852 54.438 501.045 51.238 501.237 47.974L500.852 47.91C499.764 51.43 498.676 54.822 497.716 57.19L491.06 72.998H478.068L471.092 56.486C470.196 54.182 469.045 50.79 468.021 47.398L467.701 47.526C467.892 50.662 468.084 53.67 468.148 56.934C468.212 63.078 468.34 67.814 468.532 72.998H447.604C447.924 66.086 447.988 59.11 447.988 48.934C447.988 38.438 447.925 31.27 447.669 24.998H480.5C481.652 29.286 483.253 34.278 485.237 40.358C485.813 42.598 486.581 45.542 487.349 48.422H487.477C488.244 45.478 489.013 42.598 489.589 40.358C491.508 34.534 493.237 29.158 494.325 24.998H524.213C524.085 31.27 523.956 38.438 523.956 48.934C523.956 59.11 523.957 66.086 524.341 72.998Z" fill="white" fill-opacity="0.1"/>
<path d="M564.583 53.286C563.879 49.19 562.983 45.03 562.023 41.19C561.191 38.374 560.486 35.238 559.974 32.742H559.846C559.334 35.238 558.63 38.31 557.862 41.254C556.966 45.094 556.135 49.19 555.367 53.286H564.583ZM596.775 72.998H567.078C567.014 71.014 566.758 68.006 566.31 64.486H553.51C552.998 68.006 552.679 71.014 552.615 72.998H525.542C529.702 60.838 537.126 31.526 538.406 24.998H583.271C584.807 31.654 592.423 60.838 596.775 72.998Z" fill="white" fill-opacity="0.1"/>
<path d="M634.348 45.606V44.198C634.348 39.974 632.427 38.438 628.075 38.438C623.275 38.502 621.228 40.294 621.228 48.166C621.228 55.078 623.275 57.766 628.267 57.766C632.747 57.766 634.475 55.526 634.475 52.134C634.475 51.494 634.412 50.854 634.348 50.214C638.124 50.278 643.115 50.278 647.403 50.278C651.691 50.278 655.979 50.278 660.203 50.214C660.331 51.622 660.396 52.966 660.396 54.182C660.396 69.478 651.115 74.086 627.179 74.086C602.283 74.086 594.156 66.982 594.156 47.782C594.156 29.99 603.884 23.91 627.692 23.91C651.692 23.91 660.267 28.006 660.267 40.55C660.267 42.086 660.14 43.814 659.948 45.606C655.724 45.542 651.436 45.542 647.276 45.542C643.052 45.542 638.06 45.542 634.348 45.606Z" fill="white" fill-opacity="0.1"/>
<path d="M700.902 24.998H729.766C725.158 32.742 719.974 46.374 711.27 49.574C718.054 50.918 720.806 54.246 722.726 58.918C726.95 66.982 728.806 70.95 730.022 72.998H704.23C701.222 72.998 700.134 72.358 699.366 70.374C697.126 65.958 693.862 59.302 690.918 55.718H690.086C690.15 62.054 690.214 67.75 690.47 72.998H663.526C663.782 65.894 663.91 59.238 663.91 48.998C663.91 38.822 663.782 31.974 663.526 24.998H690.47C690.15 31.142 690.086 38.374 690.086 45.99H690.662C692.07 43.43 693.542 40.87 694.758 38.63C697.958 32.486 699.622 28.134 700.902 24.998Z" fill="white" fill-opacity="0.1"/>
<path d="M-414.96 53.286C-415.664 49.19 -416.56 45.03 -417.52 41.19C-418.352 38.374 -419.056 35.238 -419.568 32.742H-419.696C-420.208 35.238 -420.912 38.31 -421.68 41.254C-422.576 45.094 -423.408 49.19 -424.176 53.286H-414.96ZM-382.768 72.998H-412.464C-412.528 71.014 -412.784 68.006 -413.232 64.486H-426.032C-426.544 68.006 -426.864 71.014 -426.928 72.998H-454C-449.84 60.838 -442.416 31.526 -441.136 24.998H-396.272C-394.736 31.654 -387.12 60.838 -382.768 72.998Z" fill="white" fill-opacity="0.1"/>
<path d="M-344.939 24.998H-318.891C-319.147 29.222 -319.211 33.446 -319.211 39.718C-319.211 43.494 -319.083 49.574 -319.083 53.286C-319.083 68.198 -325.611 74.15 -351.403 74.15C-377.195 74.15 -383.723 68.198 -383.723 53.286C-383.723 49.574 -383.595 43.494 -383.595 39.718C-383.595 33.446 -383.723 29.222 -383.915 24.998H-356.779C-356.971 32.934 -357.163 44.198 -357.163 51.11C-357.163 55.27 -355.243 57.126 -350.763 57.126C-346.347 57.126 -344.683 55.27 -344.683 51.11C-344.683 44.198 -344.875 32.934 -344.939 24.998Z" fill="white" fill-opacity="0.1"/>
<path d="M-283.15 57.894C-278.542 57.894 -276.43 56.166 -276.43 47.974C-276.43 39.91 -278.478 38.374 -283.15 38.374C-285.07 38.374 -286.927 38.438 -288.783 38.502C-288.847 41.83 -288.91 45.35 -288.91 48.742C-288.91 52.39 -288.91 55.27 -288.91 57.702C-286.99 57.894 -285.198 57.894 -283.15 57.894ZM-314.83 24.998H-279.31C-258.766 24.998 -250.062 29.158 -250.062 47.078C-250.062 67.878 -257.55 72.998 -279.694 72.998H-314.83C-314.702 66.214 -314.638 59.238 -314.638 49.062C-314.638 38.886 -314.702 31.59 -314.83 24.998Z" fill="white" fill-opacity="0.1"/>
<path d="M-220.43 72.998H-247.374C-247.182 66.022 -247.182 59.174 -247.182 48.998C-247.182 38.822 -247.182 31.91 -247.374 24.998H-220.43C-220.622 31.91 -220.622 38.758 -220.622 48.934C-220.622 59.046 -220.558 65.958 -220.43 72.998Z" fill="white" fill-opacity="0.1"/>
<path d="M-148.331 47.974C-148.331 65.958 -157.162 74.086 -183.402 74.086C-209.578 74.086 -217.834 65.958 -217.834 47.974C-217.834 30.054 -208.043 23.91 -183.339 23.91C-158.635 23.91 -148.331 30.054 -148.331 47.974ZM-183.274 58.086C-177.962 58.086 -175.85 55.334 -175.85 47.91C-175.85 40.806 -177.962 38.438 -183.274 38.438C-188.586 38.438 -190.698 40.806 -190.698 47.91C-190.698 55.398 -188.586 58.086 -183.274 58.086Z" fill="white" fill-opacity="0.1"/>
<path d="M-68.6595 72.998H-92.7235C-92.4675 67.558 -92.2755 63.206 -92.1475 57.254C-92.1475 54.438 -91.9555 51.238 -91.7635 47.974L-92.1475 47.91C-93.2355 51.43 -94.3235 54.822 -95.2835 57.19L-101.94 72.998H-114.932L-121.908 56.486C-122.804 54.182 -123.955 50.79 -124.979 47.398L-125.299 47.526C-125.108 50.662 -124.916 53.67 -124.852 56.934C-124.788 63.078 -124.66 67.814 -124.467 72.998H-145.396C-145.076 66.086 -145.012 59.11 -145.012 48.934C-145.012 38.438 -145.076 31.27 -145.332 24.998H-112.5C-111.348 29.286 -109.747 34.278 -107.763 40.358C-107.187 42.598 -106.419 45.542 -105.651 48.422H-105.523C-104.756 45.478 -103.987 42.598 -103.411 40.358C-101.492 34.534 -99.7635 29.158 -98.6755 24.998H-68.7875C-68.9155 31.27 -69.0435 38.438 -69.0435 48.934C-69.0435 59.11 -69.0435 66.086 -68.6595 72.998Z" fill="white" fill-opacity="0.1"/>
<path d="M-28.4175 53.286C-29.1215 49.19 -30.0175 45.03 -30.9775 41.19C-31.8095 38.374 -32.5135 35.238 -33.0255 32.742H-33.1535C-33.6655 35.238 -34.3695 38.31 -35.1375 41.254C-36.0335 45.094 -36.8655 49.19 -37.6335 53.286H-28.4175ZM3.77451 72.998H-25.9215C-25.9855 71.014 -26.2415 68.006 -26.6895 64.486H-39.4895C-40.0015 68.006 -40.3215 71.014 -40.3855 72.998H-67.4575C-63.2975 60.838 -55.8735 31.526 -54.5935 24.998H-9.72949C-8.19349 31.654 -0.577492 60.838 3.77451 72.998Z" fill="white" fill-opacity="0.1"/>
<path d="M41.3475 45.606V44.198C41.3475 39.974 39.4275 38.438 35.0755 38.438C30.2755 38.502 28.2275 40.294 28.2275 48.166C28.2275 55.078 30.2755 57.766 35.2675 57.766C39.7475 57.766 41.4755 55.526 41.4755 52.134C41.4755 51.494 41.4115 50.854 41.3475 50.214C45.1235 50.278 50.1155 50.278 54.4035 50.278C58.6915 50.278 62.9795 50.278 67.2035 50.214C67.3315 51.622 67.3955 52.966 67.3955 54.182C67.3955 69.478 58.1155 74.086 34.1795 74.086C9.2835 74.086 1.15549 66.982 1.15549 47.782C1.15549 29.99 10.8835 23.91 34.6915 23.91C58.6915 23.91 67.2675 28.006 67.2675 40.55C67.2675 42.086 67.1395 43.814 66.9475 45.606C62.7235 45.542 58.4355 45.542 54.2755 45.542C50.0515 45.542 45.0595 45.542 41.3475 45.606Z" fill="white" fill-opacity="0.1"/>
<path d="M107.902 24.998H136.766C132.158 32.742 126.974 46.374 118.27 49.574C125.054 50.918 127.806 54.246 129.726 58.918C133.95 66.982 135.806 70.95 137.022 72.998H111.23C108.222 72.998 107.134 72.358 106.366 70.374C104.126 65.958 100.862 59.302 97.918 55.718H97.086C97.15 62.054 97.214 67.75 97.47 72.998H70.526C70.782 65.894 70.91 59.238 70.91 48.998C70.91 38.822 70.782 31.974 70.526 24.998H97.47C97.15 31.142 97.086 38.374 97.086 45.99H97.662C99.07 43.43 100.542 40.87 101.758 38.63C104.958 32.486 106.622 28.134 107.902 24.998Z" fill="white" fill-opacity="0.1"/>
<path d="M-7.95999 -1.714C-8.66399 -5.81 -9.55999 -9.97 -10.52 -13.81C-11.352 -16.626 -12.056 -19.762 -12.568 -22.258H-12.696C-13.208 -19.762 -13.912 -16.69 -14.68 -13.746C-15.576 -9.906 -16.408 -5.81 -17.176 -1.714H-7.95999ZM24.232 17.998H-5.46399C-5.52799 16.014 -5.78399 13.006 -6.23199 9.486H-19.032C-19.544 13.006 -19.864 16.014 -19.928 17.998H-47C-42.84 5.838 -35.416 -23.474 -34.136 -30.002H10.728C12.264 -23.346 19.88 5.838 24.232 17.998Z" fill="white" fill-opacity="0.1"/>
<path d="M62.061 -30.002H88.109C87.853 -25.778 87.789 -21.554 87.789 -15.282C87.789 -11.506 87.917 -5.426 87.917 -1.714C87.917 13.198 81.389 19.15 55.597 19.15C29.805 19.15 23.277 13.198 23.277 -1.714C23.277 -5.426 23.405 -11.506 23.405 -15.282C23.405 -21.554 23.277 -25.778 23.085 -30.002H50.221C50.029 -22.066 49.837 -10.802 49.837 -3.89C49.837 0.270004 51.757 2.126 56.237 2.126C60.653 2.126 62.317 0.270004 62.317 -3.89C62.317 -10.802 62.125 -22.066 62.061 -30.002Z" fill="white" fill-opacity="0.1"/>
<path d="M123.849 2.894C128.457 2.894 130.57 1.166 130.57 -7.026C130.57 -15.09 128.521 -16.626 123.849 -16.626C121.929 -16.626 120.074 -16.562 118.218 -16.498C118.154 -13.17 118.089 -9.65 118.089 -6.258C118.089 -2.61 118.089 0.270003 118.089 2.702C120.009 2.894 121.801 2.894 123.849 2.894ZM92.1695 -30.002H127.69C148.234 -30.002 156.938 -25.842 156.938 -7.922C156.938 12.878 149.449 17.998 127.305 17.998H92.1695C92.2975 11.214 92.3615 4.238 92.3615 -5.938C92.3615 -16.114 92.2975 -23.41 92.1695 -30.002Z" fill="white" fill-opacity="0.1"/>
<path d="M186.57 17.998H159.626C159.818 11.022 159.818 4.174 159.818 -6.002C159.818 -16.178 159.818 -23.09 159.626 -30.002H186.57C186.378 -23.09 186.378 -16.242 186.378 -6.066C186.378 4.046 186.442 10.958 186.57 17.998Z" fill="white" fill-opacity="0.1"/>
<path d="M258.669 -7.026C258.669 10.958 249.838 19.086 223.598 19.086C197.422 19.086 189.166 10.958 189.166 -7.026C189.166 -24.946 198.957 -31.09 223.661 -31.09C248.365 -31.09 258.669 -24.946 258.669 -7.026ZM223.726 3.08601C229.038 3.08601 231.15 0.334003 231.15 -7.09C231.15 -14.194 229.038 -16.562 223.726 -16.562C218.414 -16.562 216.302 -14.194 216.302 -7.09C216.302 0.398005 218.414 3.08601 223.726 3.08601Z" fill="white" fill-opacity="0.1"/>
<path d="M338.341 17.998H314.276C314.532 12.558 314.724 8.20601 314.852 2.25401C314.852 -0.561996 315.045 -3.762 315.237 -7.026L314.852 -7.09C313.764 -3.57 312.676 -0.177998 311.716 2.19L305.06 17.998H292.068L285.092 1.486C284.196 -0.817995 283.045 -4.21 282.021 -7.602L281.701 -7.474C281.892 -4.338 282.084 -1.32999 282.148 1.93401C282.212 8.07801 282.34 12.814 282.532 17.998H261.604C261.924 11.086 261.988 4.11 261.988 -6.066C261.988 -16.562 261.925 -23.73 261.669 -30.002H294.5C295.652 -25.714 297.253 -20.722 299.237 -14.642C299.813 -12.402 300.581 -9.458 301.349 -6.578H301.477C302.244 -9.522 303.013 -12.402 303.589 -14.642C305.508 -20.466 307.237 -25.842 308.325 -30.002H338.213C338.085 -23.73 337.956 -16.562 337.956 -6.066C337.956 4.11 337.957 11.086 338.341 17.998Z" fill="white" fill-opacity="0.1"/>
<path d="M378.583 -1.714C377.879 -5.81 376.983 -9.97 376.023 -13.81C375.191 -16.626 374.486 -19.762 373.974 -22.258H373.846C373.334 -19.762 372.63 -16.69 371.862 -13.746C370.966 -9.906 370.135 -5.81 369.367 -1.714H378.583ZM410.775 17.998H381.078C381.014 16.014 380.758 13.006 380.31 9.486H367.51C366.998 13.006 366.679 16.014 366.615 17.998H339.542C343.702 5.838 351.126 -23.474 352.406 -30.002H397.271C398.807 -23.346 406.423 5.838 410.775 17.998Z" fill="white" fill-opacity="0.1"/>
<path d="M448.347 -9.394V-10.802C448.347 -15.026 446.427 -16.562 442.076 -16.562C437.275 -16.498 435.227 -14.706 435.227 -6.834C435.227 0.0780048 437.276 2.76601 442.268 2.76601C446.748 2.76601 448.476 0.526005 448.476 -2.866C448.476 -3.506 448.411 -4.146 448.347 -4.786C452.123 -4.722 457.116 -4.722 461.404 -4.722C465.692 -4.722 469.979 -4.722 474.203 -4.786C474.331 -3.378 474.396 -2.034 474.396 -0.817995C474.396 14.478 465.116 19.086 441.18 19.086C416.284 19.086 408.156 11.982 408.156 -7.218C408.156 -25.01 417.884 -31.09 441.692 -31.09C465.692 -31.09 474.268 -26.994 474.268 -14.45C474.268 -12.914 474.14 -11.186 473.948 -9.394C469.724 -9.458 465.436 -9.458 461.276 -9.458C457.052 -9.458 452.059 -9.458 448.347 -9.394Z" fill="white" fill-opacity="0.1"/>
<path d="M514.902 -30.002H543.766C539.158 -22.258 533.974 -8.626 525.27 -5.426C532.054 -4.082 534.806 -0.753997 536.726 3.918C540.95 11.982 542.806 15.95 544.022 17.998H518.23C515.222 17.998 514.134 17.358 513.366 15.374C511.126 10.958 507.862 4.302 504.918 0.718004H504.086C504.15 7.054 504.214 12.75 504.47 17.998H477.526C477.782 10.894 477.91 4.238 477.91 -6.002C477.91 -16.178 477.782 -23.026 477.526 -30.002H504.47C504.15 -23.858 504.086 -16.626 504.086 -9.01H504.662C506.07 -11.57 507.542 -14.13 508.758 -16.37C511.958 -22.514 513.622 -26.866 514.902 -30.002Z" fill="white" fill-opacity="0.1"/>
</g>
<rect id="Rectangle 6" x="279" width="233" height="279" transform="rotate(90 279 0)" fill="url(#paint1_linear_0_28)"/>
<rect id="Rectangle 3" width="375" height="233" transform="matrix(1 0 0 -1 0 233)" fill="url(#paint2_linear_0_28)"/>
<rect id="Rectangle 3_2" width="375" height="233" fill="url(#paint3_linear_0_28)" fill-opacity="0.8"/>
</g>
<defs>
<linearGradient id="paint0_linear_0_28" x1="0" y1="0" x2="0" y2="233" gradientUnits="userSpaceOnUse">
<stop/>
<stop offset="1" stop-opacity="0.75"/>
</linearGradient>
<linearGradient id="paint1_linear_0_28" x1="279" y1="0" x2="279" y2="279" gradientUnits="userSpaceOnUse">
<stop stop-opacity="0.01"/>
<stop offset="1"/>
</linearGradient>
<linearGradient id="paint2_linear_0_28" x1="0" y1="0" x2="0" y2="233" gradientUnits="userSpaceOnUse">
<stop/>
<stop offset="1" stop-opacity="0"/>
</linearGradient>
<linearGradient id="paint3_linear_0_28" x1="0" y1="0" x2="0" y2="233" gradientUnits="userSpaceOnUse">
<stop stop-opacity="0.01"/>
<stop offset="1"/>
</linearGradient>
<clipPath id="clip0_0_28">
<rect width="375" height="233" fill="white"/>
</clipPath>
</defs>
</svg>
