<svg preserveAspectRatio="none" width="100%" height="100%" overflow="visible" style="display: block;" viewBox="0 0 1440 430" fill="none" xmlns="http://www.w3.org/2000/svg">
<g id="lines" clip-path="url(#clip0_0_4)">
<path id="Vector" opacity="0.1" d="M0 -18.8476C0 -18.8476 1540.47 844.917 1590 123.925" stroke="white" stroke-miterlimit="10"/>
<path id="Vector_2" opacity="0.1" d="M1585.97 112.23C1571.15 328.185 1409.59 415.421 1191.07 399.662C969.77 383.694 710.711 323.963 487.023 222.462C215.193 99.0936 0 -5.13399 0 -5.13399" stroke="white" stroke-miterlimit="10"/>
<path id="Vector_3" opacity="0.1" d="M1581.98 100.51C1567.87 305.687 1407.85 409.993 1187.02 389.174C958.442 367.621 706.463 337.598 485.912 229.201C214.749 95.9209 0.0556641 8.50085 0.0556641 8.50085" stroke="white" stroke-miterlimit="10"/>
<path id="Vector_4" opacity="0.1" d="M1577.95 88.815C1564.6 283.19 1406.04 404.487 1182.91 378.712C947.031 351.469 702.188 351.18 484.718 235.966C214.249 92.6957 0 22.1618 0 22.1618" stroke="white" stroke-miterlimit="10"/>
<path id="Vector_5" opacity="0.1" d="M1573.93 77.0944C1561.32 260.666 1404.24 398.849 1178.83 368.25C935.649 335.212 697.968 364.658 483.552 242.757C213.777 89.3657 0 35.8491 0 35.8491" stroke="white" stroke-miterlimit="10"/>
<path id="Vector_6" opacity="0.1" d="M1569.9 65.3737C1558.04 238.142 1402.43 393.107 1174.75 357.762C924.238 318.85 693.775 378.004 482.414 249.496C213.36 85.9046 0 49.4839 0 49.4839" stroke="white" stroke-miterlimit="10"/>
<path id="Vector_7" opacity="0.1" d="M1565.9 53.6792C1554.77 215.645 1400.65 387.312 1170.69 347.299C912.882 302.436 689.638 391.298 481.275 256.287C212.971 82.391 0.0268555 63.1973 0.0268555 63.1973" stroke="white" stroke-miterlimit="10"/>
<path id="Vector_8" opacity="0.1" d="M1561.87 41.9584C1551.49 193.121 1398.85 381.413 1166.61 336.837C901.499 285.943 685.501 404.539 480.136 263.052C212.61 78.7462 0.0268555 76.8583 0.0268555 76.8583" stroke="white" stroke-miterlimit="10"/>
<path id="Vector_9" opacity="0.1" d="M1557.85 30.2378C1548.22 170.624 1397.07 375.434 1162.5 326.349C890.117 269.319 681.393 417.676 478.943 269.791C212.278 74.9967 0 90.4932 0 90.4932" stroke="white" stroke-miterlimit="10"/>
<path id="Vector_10" opacity="0.1" d="M1553.85 18.5433C1544.94 148.126 1395.32 369.43 1158.45 315.887C878.789 252.669 677.367 430.76 477.805 276.582C212.028 71.2471 0 104.18 0 104.18" stroke="white" stroke-miterlimit="10"/>
<path id="Vector_11" opacity="0.1" d="M1549.83 6.82268C1541.66 125.603 1393.57 363.32 1154.37 305.425C867.433 235.94 673.368 443.792 476.666 283.347C211.86 67.3664 0.0268555 117.841 0.0268555 117.841" stroke="white" stroke-miterlimit="10"/>
<path id="Vector_12" opacity="0.1" d="M1545.8 -4.89809C1538.39 103.079 1391.83 357.185 1150.29 294.936C856.135 219.132 669.427 456.771 475.501 290.086C211.75 63.3808 0 131.502 0 131.502" stroke="white" stroke-miterlimit="10"/>
<path id="Vector_13" opacity="0.1" d="M1541.8 -16.5925C1535.14 80.5817 1390.16 351.023 1146.23 284.475C844.89 202.272 665.567 469.724 474.362 296.877C211.694 59.4215 0.0268555 145.19 0.0268555 145.19" stroke="white" stroke-miterlimit="10"/>
<path id="Vector_14" opacity="0.1" d="M1537.78 -28.3132C1531.84 58.0842 1388.47 344.782 1142.15 274.012C833.618 185.36 661.708 482.625 473.223 303.642C211.749 55.3573 0.0268555 158.851 0.0268555 158.851" stroke="white" stroke-miterlimit="10"/>
<path id="Vector_15" opacity="0.1" d="M1533.75 -40.0338C1528.56 35.5607 1386.77 338.489 1138.04 263.524C822.347 168.369 657.905 495.473 472.03 310.381C211.806 51.2407 0 172.486 0 172.486" stroke="white" stroke-miterlimit="10"/>
<path id="Vector_16" opacity="0.1" d="M1529.75 -51.7284C1525.31 13.0632 1385.16 332.196 1133.99 253.062C811.186 151.352 654.185 508.347 470.892 317.172C212 47.124 0 186.173 0 186.173" stroke="white" stroke-miterlimit="10"/>
<path id="Vector_17" opacity="0.1" d="M1525.73 -63.449C1522.01 -9.46039 1383.52 325.851 1129.91 242.6C799.996 134.282 650.491 521.169 469.753 323.937C212.277 42.9287 0.0268555 199.86 0.0268555 199.86" stroke="white" stroke-miterlimit="10"/>
<path id="Vector_18" opacity="0.1" d="M1521.7 -75.1697C1518.73 -31.9841 1381.91 319.479 1125.83 232.112C788.864 117.133 646.828 533.965 468.588 330.702C212.583 38.7333 0 213.521 0 213.521" stroke="white" stroke-miterlimit="10"/>
<path id="Vector_19" opacity="0.1" d="M1517.68 -86.8642C1515.45 -54.4815 1380.3 313.107 1121.74 221.649C777.73 99.9588 643.218 546.787 467.449 337.467C212.999 34.4856 0.0268555 227.182 0.0268555 227.182" stroke="white" stroke-miterlimit="10"/>
<path id="Vector_20" opacity="0.1" d="M1513.68 -98.5849C1512.21 -76.979 1378.75 306.71 1117.66 211.187C766.654 82.758 639.665 559.583 466.283 344.232C213.444 30.2378 0 240.843 0 240.843" stroke="white" stroke-miterlimit="10"/>
<path id="Vector_21" opacity="0.1" d="M1509.65 -110.306C1508.9 -99.5026 1377.39 299.84 1113.58 200.699C755.826 64.9279 636.611 572.038 465.117 350.997C214.638 25.5181 0 254.504 0 254.504" stroke="white" stroke-miterlimit="10"/>
<path id="Vector_22" opacity="0.1" d="M1505.63 -122C1505.63 -122 1375.67 293.835 1109.5 190.237C744.554 48.1991 632.696 585.148 463.979 357.761C214.61 21.6898 0 268.191 0 268.191" stroke="white" stroke-miterlimit="10"/>
<rect id="Rectangle 1" y="-17" width="200" height="442" fill="url(#paint0_linear_0_4)"/>
<rect id="Rectangle 2" x="1439" y="425" width="200" height="442" transform="rotate(-180 1439 425)" fill="url(#paint1_linear_0_4)"/>
</g>
<defs>
<linearGradient id="paint0_linear_0_4" x1="200" y1="204" x2="0" y2="204" gradientUnits="userSpaceOnUse">
<stop stop-color="#0D0D0D" stop-opacity="0"/>
<stop offset="1" stop-color="#0D0D0D"/>
</linearGradient>
<linearGradient id="paint1_linear_0_4" x1="1639" y1="646" x2="1439" y2="646" gradientUnits="userSpaceOnUse">
<stop stop-color="#0D0D0D" stop-opacity="0"/>
<stop offset="1" stop-color="#0D0D0D"/>
</linearGradient>
<clipPath id="clip0_0_4">
<rect width="1440" height="430" fill="white"/>
</clipPath>
</defs>
</svg>
