<svg preserveAspectRatio="none" width="100%" height="100%" overflow="visible" style="display: block;" viewBox="0 0 16 16" fill="none" xmlns="http://www.w3.org/2000/svg">
<path id="Fill 1" fill-rule="evenodd" clip-rule="evenodd" d="M15.7562 14.5725L11.8128 10.6134C12.827 9.4489 13.3826 7.9842 13.3826 6.45947C13.3826 2.89779 10.3811 0 6.6904 0C3.00155 0 0 2.89779 0 6.45947C0 10.0222 3.00155 12.92 6.6904 12.92C8.07554 12.92 9.39667 12.517 10.5243 11.7502L14.499 15.7409C14.6652 15.9084 14.8881 16 15.1285 16C15.3543 16 15.5685 15.9164 15.7322 15.7644C16.0802 15.4421 16.09 14.9085 15.7562 14.5725ZM6.69041 1.68551C9.41777 1.68551 11.6368 3.82779 11.6368 6.45946C11.6368 9.09254 9.41777 11.2345 6.69041 11.2345C3.9645 11.2345 1.74588 9.09254 1.74588 6.45946C1.74588 3.82779 3.9645 1.68551 6.69041 1.68551Z" fill="var(--fill-0, #FFA200)"/>
</svg>
