<svg preserveAspectRatio="none" width="100%" height="100%" overflow="visible" style="display: block;" viewBox="0 0 24.9093 17.1553" fill="none" xmlns="http://www.w3.org/2000/svg">
<g id="mark-alone-#ffa200">
<path id="mark-alone-#ffa200_2" fill-rule="evenodd" clip-rule="evenodd" d="M0.343757 7.9367C0.343757 7.9367 0.906338 7.84384 1.13815 8.08614C1.37019 8.32837 1.21814 8.82949 0.910245 8.83783C0.602349 8.84609 0.317783 8.903 0.115737 8.68839C-0.0863092 8.47377 -0.0320625 8.04259 0.343757 7.9367M6.44716 11.3569C6.39298 11.3626 6.33566 11.3377 6.27698 11.2958C5.87383 10.7335 5.72821 8.81091 5.54315 8.69639C5.35127 8.57764 4.65634 9.76168 3.27412 9.63437C2.69615 9.58105 2.10795 9.20632 1.76157 8.9468C1.79378 8.50991 1.79938 7.48977 2.66026 7.82152C3.18323 8.02296 4.07878 8.57628 4.86528 7.58267C5.7349 6.48379 6.21447 6.80302 6.50216 7.04187C6.78972 7.28071 6.59811 8.52296 7.02705 8.17571C7.45599 7.82846 9.18799 5.67217 9.18799 5.67217C9.18799 5.67217 10.5289 4.31879 10.7342 5.74154C10.9396 7.16428 11.8139 8.741 12.0456 8.69611C12.2775 8.65109 14.9748 3.16468 15.3612 2.81076C15.7475 2.45671 17.048 2.50323 16.9862 3.41128C16.9243 4.31934 16.792 9.96339 16.792 9.96339C16.792 9.96339 16.6394 11.5538 16.8879 10.7039C16.9909 10.3515 17.1016 10.0336 17.24 9.66266C17.9057 7.52976 19.0397 3.88612 19.6047 2.00867C19.7346 1.5594 19.8465 1.17379 19.9333 0.877407L19.9335 0.876591C19.9672 0.739213 20.0008 0.630399 20.0345 0.533282C20.0817 0.374142 20.1136 0.268864 20.1234 0.241116C20.1487 0.170931 20.2195 0.11734 20.319 0.0780309C20.4189 0.0150547 20.526 0.0117903 20.6475 0.00866188C20.9611 -0.0194938 21.3644 0.0214475 21.727 0.124821C21.8327 0.129038 21.9476 0.162906 22.0562 0.24098V0.241116C22.0562 0.241116 22.0627 0.245061 22.0719 0.251045C22.0743 0.25295 22.0769 0.25431 22.0795 0.25635C22.1022 0.272128 22.139 0.303276 22.1816 0.354555C22.1828 0.356187 22.1842 0.358227 22.1857 0.359724C22.2033 0.38135 22.2211 0.406922 22.2391 0.43603C22.4416 0.733364 22.5661 1.28152 22.4413 2.25363C22.1303 4.67938 21.8896 9.66959 21.8896 9.66959C21.8896 9.66959 21.8417 9.90831 22.3413 8.8573C22.3588 8.82071 22.381 8.78915 22.4015 8.75556C22.4285 8.73774 22.4588 8.71216 22.4963 8.66701C22.8049 8.29867 23.6347 8.0824 24.21 8.08676C24.4526 8.11614 24.6556 8.17721 24.777 8.25392C25.0041 8.59981 24.87 9.87634 24.87 9.87634C24.3914 9.92068 23.4789 10.1784 23.1555 10.226C22.8319 10.2739 22.3406 12.3761 21.6576 12.161C20.9745 11.9461 19.4524 10.9906 19.4524 10.8592C19.4524 10.7448 19.5721 9.34832 19.6032 8.98787C19.6055 8.96298 19.6073 8.93986 19.6092 8.91687C19.6099 8.91021 19.6106 8.90245 19.6106 8.90245L19.6104 8.90286C19.6325 8.61899 19.6129 8.49495 19.4819 8.77827C19.3691 9.02201 18.8788 10.5813 18.3321 12.2796C18.2743 12.428 17.2411 15.5575 17.1054 15.9391C16.9436 16.3817 16.8075 16.7205 16.7136 16.8957C16.5706 17.0896 16.3779 17.2111 16.1089 17.1296C15.4379 16.9267 14.588 15.9986 14.5801 15.7684C14.564 14.4697 14.6432 7.48678 14.3286 8.06867C14.0057 8.66537 11.4951 12.806 11.4951 12.806C11.4531 12.8132 11.4219 12.8119 11.385 12.8153C11.2071 12.7958 10.9317 12.738 10.8556 12.5677C10.8513 12.5577 10.8459 12.5485 10.8422 12.5381C10.8385 12.5275 10.8344 12.5156 10.8281 12.4963C10.794 12.3823 10.7801 12.2586 10.7501 12.1572C10.6378 11.7779 10.458 11.2342 10.2694 10.6812C9.9805 9.73815 9.68257 8.77351 9.63358 8.66701C9.53777 8.45863 9.39816 8.5465 9.27287 8.66687C8.71251 9.14253 7.52218 11.2421 6.44716 11.3569" fill="url(#paint0_linear_0_61)"/>
</g>
<defs>
<linearGradient id="paint0_linear_0_61" x1="-11.27" y1="8.19263" x2="5.76823" y2="30.8319" gradientUnits="userSpaceOnUse">
<stop stop-color="#FFBE00"/>
<stop offset="1" stop-color="#E85E0A"/>
</linearGradient>
</defs>
</svg>
