<svg preserveAspectRatio="none" width="100%" height="100%" overflow="visible" style="display: block;" viewBox="0 0 101.733 15.8555" fill="none" xmlns="http://www.w3.org/2000/svg">
<path id="Fill 3" fill-rule="evenodd" clip-rule="evenodd" d="M18.1508 15.5889H21.486V5.05844H18.1508V11.0851C18.1508 11.7841 17.9738 12.3383 17.6126 12.7456C17.2511 13.1527 16.7739 13.3565 16.1746 13.3565C14.96 13.3565 14.3532 12.6122 14.3532 11.1276V5.05844H11.0177V11.4152C11.0177 14.3671 12.2717 15.8452 14.7866 15.8452C16.1703 15.8452 17.2728 15.2238 18.0998 13.9846H18.1508V15.5889ZM6.65974 15.5887H9.82499V9.2952C9.82499 6.30084 8.27819 4.80195 5.18893 4.80195C4.52396 4.80195 3.7868 4.88948 2.98069 5.06851C2.1716 5.2478 1.53567 5.45134 1.06938 5.68652V8.13327C2.23321 7.38553 3.46191 7.01298 4.75195 7.01298C6.03819 7.01298 6.68145 7.58881 6.68145 8.7402L3.73659 9.11908C1.24661 9.43521 0 10.6148 0 12.6574C0 13.6231 0.299643 14.3988 0.903273 14.9778C1.5069 15.5571 2.33418 15.845 3.38944 15.845C4.81329 15.845 5.89 15.2549 6.61631 14.0756H6.65974V15.5887ZM6.68039 10.6007V11.3097C6.68039 11.9559 6.48175 12.4891 6.08799 12.9104C5.69042 13.3317 5.18106 13.5424 4.55201 13.5424C4.10072 13.5424 3.74305 13.4227 3.47547 13.188C3.21197 12.9526 3.08171 12.6478 3.08171 12.2787C3.08171 11.4608 3.62391 10.9841 4.71104 10.8465L6.68039 10.6007ZM30.2778 15.5888H33.6241V0H30.2778V6.26187H30.2381C29.6855 5.28607 28.7136 4.802 27.3153 4.802C25.8407 4.802 24.6486 5.3251 23.7377 6.37445C22.8271 7.42434 22.3717 8.81751 22.3717 10.5584C22.3717 12.2258 22.7837 13.5246 23.6112 14.4513C24.4347 15.3813 25.5264 15.845 26.881 15.845C28.3556 15.845 29.4757 15.2763 30.2381 14.1389H30.2778V15.5888ZM30.3427 9.67421V10.4673C30.3427 11.3382 30.1294 12.0366 29.703 12.5663C29.2764 13.0933 28.7239 13.3564 28.0441 13.3564C27.3329 13.3564 26.7763 13.107 26.3719 12.605C25.9711 12.1067 25.7684 11.3943 25.7684 10.4673C25.7684 9.48068 25.9779 8.70526 26.3936 8.13682C26.8091 7.57154 27.3901 7.29074 28.131 7.29074C28.7852 7.29074 29.3196 7.51538 29.7283 7.96808C30.1364 8.42104 30.3427 8.98975 30.3427 9.67421ZM35.3882 2.90312C35.7491 3.22952 36.2113 3.39115 36.7752 3.39115C37.3462 3.39115 37.8124 3.23295 38.166 2.92052C38.5245 2.60439 38.7011 2.20073 38.7011 1.70611C38.7011 1.21782 38.5245 0.821803 38.166 0.512532C37.8124 0.203789 37.3462 0.0492859 36.7752 0.0492859C36.2113 0.0492859 35.7491 0.203789 35.3882 0.512532C35.0265 0.821803 34.8498 1.21782 34.8498 1.70611C34.8498 2.18017 35.0265 2.57671 35.3882 2.90312ZM38.7235 13.0336C38.5026 12.8058 38.3943 12.4651 38.3943 12.019V5.05844H35.07V12.7385C35.07 13.2197 35.1419 13.6513 35.2833 14.0373C35.4239 14.4199 35.6231 14.7465 35.8788 15.0165C36.1399 15.2905 36.4504 15.4974 36.8117 15.6414C37.1767 15.7854 37.5814 15.8555 38.026 15.8555C38.5096 15.8555 38.98 15.8241 39.4278 15.7574C39.8762 15.6944 40.2991 15.6098 40.7035 15.5082V13.2231L40.6758 13.2284L40.6756 13.2284C40.5008 13.2615 40.3256 13.2946 40.1509 13.3249C39.9701 13.36 39.7853 13.3776 39.6013 13.3776C39.2362 13.3776 38.9436 13.2616 38.7235 13.0336ZM41.73 14.3706C42.7638 15.3535 44.1833 15.845 45.9901 15.845C47.826 15.845 49.271 15.3393 50.326 14.325C51.3821 13.3104 51.9089 11.9278 51.9089 10.1795C51.9089 8.56144 51.3959 7.25897 50.3735 6.27579C49.3511 5.2934 47.9381 4.80194 46.1383 4.80194C44.3101 4.80194 42.8613 5.2934 41.7878 6.27579C40.7146 7.25897 40.1799 8.62445 40.1799 10.3654C40.1799 12.0502 40.6964 13.3877 41.73 14.3706ZM44.2341 8.08066C44.671 7.55387 45.2851 7.29074 46.0767 7.29074C47.6914 7.29074 48.5001 8.27339 48.5001 10.2429C48.5001 12.3171 47.6984 13.3564 46.0981 13.3564C44.4181 13.3564 43.576 12.3453 43.576 10.3236C43.576 9.35834 43.7972 8.61035 44.2341 8.08066ZM66.6703 15.5887H70.0057V9.03866C70.0057 6.21277 68.828 4.80194 66.4719 4.80194C64.8681 4.80194 63.657 5.45502 62.83 6.76408C62.2655 5.45502 61.2178 4.80194 59.6859 4.80194C58.945 4.80194 58.2615 4.97754 57.6367 5.33189C57.0111 5.68256 56.5275 6.14264 56.1809 6.70423H56.1374V5.05822H52.7947V15.5887H56.1374V9.73709C56.1374 8.98223 56.3109 8.38584 56.6542 7.94685C56.9938 7.50812 57.4525 7.29061 58.0238 7.29061C59.1575 7.29061 59.7288 8.03465 59.7288 9.51983V15.5887H63.0716V9.6949C63.0716 9.01044 63.2447 8.43804 63.5916 7.97849C63.9388 7.51867 64.3863 7.29061 64.9359 7.29061C66.093 7.29061 66.6703 8.056 66.6703 9.58258V15.5887ZM80.387 15.5887H77.2218V14.0756H77.1786C76.452 15.2549 75.3753 15.845 73.952 15.845C72.8973 15.845 72.0695 15.5571 71.4661 14.9778C70.8625 14.3988 70.5626 13.6231 70.5626 12.6574C70.5626 10.6148 71.8094 9.4352 74.2989 9.11907L77.2437 8.7402C77.2437 7.5888 76.6005 7.01297 75.3145 7.01297C74.0242 7.01297 72.7952 7.38552 71.6319 8.13326V5.68651C72.0982 5.45133 72.7339 5.24779 73.5438 5.0685C74.3494 4.88948 75.0871 4.80194 75.7515 4.80194C78.841 4.80194 80.387 6.30084 80.387 9.29519V15.5887ZM77.2435 11.3097V10.6007L75.2746 10.8465C74.187 10.9841 73.6448 11.4608 73.6448 12.2787C73.6448 12.6478 73.7753 12.9526 74.0393 13.188C74.3061 13.4227 74.6635 13.5424 75.1156 13.5424C75.7444 13.5424 76.254 13.3317 76.6513 12.9104C77.0445 12.4891 77.2435 11.9559 77.2435 11.3097ZM89.9632 15.2096C89.2089 15.6343 88.117 15.845 86.6937 15.845C85.0272 15.845 83.6799 15.3567 82.6502 14.3743C81.6204 13.3948 81.1031 12.1311 81.1031 10.5795C81.1031 8.78924 81.656 7.38157 82.7585 6.34961C83.8645 5.31766 85.3424 4.80194 87.1923 4.80194C88.4677 4.80194 89.393 4.96699 89.9632 5.2934V8.05205C89.2662 7.54345 88.4859 7.29061 87.6263 7.29061C86.6641 7.29061 85.9061 7.56085 85.3424 8.10821C84.7819 8.65266 84.5001 9.40356 84.5001 10.3654C84.5001 11.2956 84.771 12.0291 85.3063 12.5593C85.8404 13.0932 86.5816 13.3563 87.5175 13.3563C88.3521 13.3563 89.1652 13.1035 89.9632 12.5946V15.2096ZM97.7184 15.5888H101.733L97.5705 10.004L101.455 5.05827H97.4871L94.2573 9.92355H94.2136V0H90.8711V15.5888H94.2136V10.3654H94.2573L97.7184 15.5888Z" fill="var(--fill-0, white)"/>
</svg>
