<svg preserveAspectRatio="none" width="100%" height="100%" overflow="visible" style="display: block;" viewBox="0 0 171 16" fill="none" xmlns="http://www.w3.org/2000/svg">
<g id="social-icons">
<path id="X" d="M9.52217 6.77491L15.4785 0H14.0671L8.89516 5.88256L4.76437 0H0L6.24656 8.89547L0 16H1.41155L6.87321 9.78782L11.2356 16H16L9.52183 6.77491H9.52217ZM7.58887 8.97384L6.95596 8.08805L1.92015 1.03974H4.0882L8.15216 6.72795L8.78507 7.61374L14.0677 15.0075H11.8997L7.58887 8.97418V8.97384Z" fill="var(--fill-0, white)"/>
<path id="Fill 2" fill-rule="evenodd" clip-rule="evenodd" d="M38.5029 0C36.0776 0 34.5099 1.54574 34.5099 3.93768V5.75349H32.339C32.1522 5.75349 32 5.89893 32 6.07933V8.71034C32 8.88991 32.1522 9.03618 32.339 9.03618H34.5099V15.6742C34.5099 15.8537 34.6621 16 34.8498 16H37.6809C37.8688 16 38.0208 15.8537 38.0208 15.6742V9.03618H40.5586C40.7465 9.03618 40.8978 8.88991 40.8978 8.71034L40.8996 6.07933C40.8996 5.99319 40.8632 5.91037 40.7998 5.84858C40.7363 5.78761 40.6499 5.75349 40.5595 5.75349H38.0208V4.21421C38.0208 3.47452 38.2044 3.09896 39.2065 3.09896L40.661 3.09813C40.8487 3.09813 41 2.95186 41 2.7723V0.329996C41 0.149393 40.8487 0.00395329 40.6619 0.00312102L38.5029 0Z" fill="var(--fill-0, white)"/>
<path id="Fill 1" fill-rule="evenodd" clip-rule="evenodd" d="M61.7016 0.0481422C62.5549 0.00920926 62.8273 0 65 0C67.1727 0 67.4451 0.00920926 68.2984 0.0481422C69.1499 0.0869798 69.7314 0.222229 70.2403 0.420006C70.7664 0.624419 71.2125 0.897966 71.6573 1.34271C72.102 1.78748 72.3756 2.23363 72.58 2.7597C72.7778 3.26855 72.913 3.8501 72.9519 4.70161C72.9908 5.5549 73 5.82733 73 8.00002C73 10.1727 72.9908 10.4451 72.9519 11.2984C72.913 12.1499 72.7778 12.7314 72.58 13.2403C72.3756 13.7664 72.102 14.2125 71.6573 14.6573C71.2125 15.102 70.7664 15.3756 70.2403 15.58C69.7314 15.7778 69.1499 15.913 68.2984 15.9519C67.4451 15.9908 67.1727 16 65 16C62.8273 16 62.5549 15.9908 61.7016 15.9519C60.8501 15.913 60.2686 15.7778 59.7597 15.58C59.2336 15.3756 58.7875 15.102 58.3427 14.6573C57.898 14.2125 57.6244 13.7664 57.42 13.2403C57.2222 12.7314 57.087 12.1499 57.0481 11.2984C57.0092 10.4451 57 10.1727 57 8.00002C57 5.82733 57.0092 5.5549 57.0481 4.70161C57.087 3.8501 57.2222 3.26855 57.42 2.7597C57.6244 2.23363 57.898 1.78748 58.3427 1.34271C58.7875 0.897966 59.2336 0.624419 59.7597 0.420006C60.2686 0.222229 60.8501 0.0869798 61.7016 0.0481422ZM68.2327 1.48809C67.3891 1.4496 67.1361 1.44144 65 1.44144C62.8639 1.44144 62.6109 1.4496 61.7673 1.48809C60.9873 1.52366 60.5637 1.65398 60.2818 1.76354C59.9084 1.90867 59.6419 2.08202 59.362 2.36198C59.082 2.64191 58.9087 2.90841 58.7635 3.28183C58.654 3.56373 58.5237 3.98732 58.4881 4.76731C58.4496 5.61088 58.4414 5.86391 58.4414 8.00002C58.4414 10.1361 58.4496 10.3891 58.4881 11.2327C58.5237 12.0127 58.654 12.4363 58.7635 12.7182C58.9087 13.0916 59.0821 13.3581 59.362 13.638C59.6419 13.918 59.9084 14.0913 60.2818 14.2365C60.5637 14.346 60.9873 14.4763 61.7673 14.5119C62.6108 14.5504 62.8638 14.5586 65 14.5586C67.1362 14.5586 67.3892 14.5504 68.2327 14.5119C69.0127 14.4763 69.4363 14.346 69.7182 14.2365C70.0916 14.0913 70.3581 13.918 70.638 13.638C70.918 13.3581 71.0913 13.0916 71.2365 12.7182C71.346 12.4363 71.4763 12.0127 71.5119 11.2327C71.5504 10.3891 71.5586 10.1361 71.5586 8.00002C71.5586 5.86391 71.5504 5.61088 71.5119 4.76731C71.4763 3.98732 71.346 3.56373 71.2365 3.28183C71.0913 2.90841 70.918 2.64191 70.638 2.36198C70.3581 2.08202 70.0916 1.90867 69.7182 1.76354C69.4363 1.65398 69.0127 1.52366 68.2327 1.48809ZM62.3333 8.00002C62.3333 9.47277 63.5272 10.6667 65 10.6667C66.4728 10.6667 67.6667 9.47277 67.6667 8.00002C67.6667 6.52723 66.4728 5.33333 65 5.33333C63.5272 5.33333 62.3333 6.52723 62.3333 8.00002ZM60.8919 8.00002C60.8919 5.73114 62.7311 3.89189 65 3.89189C67.2689 3.89189 69.1081 5.73114 69.1081 8.00002C69.1081 10.2689 67.2689 12.1081 65 12.1081C62.7311 12.1081 60.8919 10.2689 60.8919 8.00002ZM69.2704 4.68957C69.8006 4.68957 70.2304 4.25979 70.2304 3.72959C70.2304 3.19939 69.8006 2.76957 69.2704 2.76957C68.7402 2.76957 68.3104 3.19939 68.3104 3.72959C68.3104 4.25979 68.7402 4.68957 69.2704 4.68957Z" fill="var(--fill-0, white)"/>
<path id="youtube" fill-rule="evenodd" clip-rule="evenodd" d="M103.341 8.32151L97.325 11.2704C97.1647 11.3489 96.9795 11.2288 96.9795 11.0463V4.96427C96.9795 4.77916 97.1695 4.6592 97.3302 4.74287L103.346 7.87606C103.525 7.9692 103.522 8.23283 103.341 8.32151ZM106.431 0H93.5691C91.0457 0 89 2.10246 89 4.69598V11.304C89 13.8975 91.0457 16 93.5691 16H106.431C108.954 16 111 13.8975 111 11.304V4.69598C111 2.10246 108.954 0 106.431 0V0Z" fill="var(--fill-0, white)"/>
<path id="Vector" d="M136.558 0H133.993V10.8985C133.993 12.1971 133.007 13.2638 131.779 13.2638C130.551 13.2638 129.565 12.1971 129.565 10.8985C129.565 9.6232 130.53 8.57969 131.713 8.53333V5.79711C129.105 5.84347 127 8.09276 127 10.8985C127 13.7276 129.148 16 131.801 16C134.454 16 136.602 13.7044 136.602 10.8985V5.31013C137.567 6.05218 138.75 6.49276 140 6.51596V3.77971C138.071 3.71015 136.558 2.04058 136.558 0Z" fill="var(--fill-0, white)"/>
<path id="Vector_2" d="M157.055 0L156 2.74625V13.97H159.75V16H161.859L163.852 13.97H166.899L171 9.791V0H157.055ZM169.594 9.075L167.25 11.4625H163.5L161.508 13.4925V11.4625H158.344V1.4325H169.593V9.075H169.594ZM167.25 4.179V8.358H165.844V4.179H167.25ZM163.5 4.179V8.358H162.094V4.179H163.5Z" fill="var(--fill-0, white)"/>
</g>
</svg>
