<svg width="1385" height="464" viewBox="0 0 1385 464" fill="none" xmlns="http://www.w3.org/2000/svg">
<rect width="1385" height="464" fill="#E5E5E5"/>
<g id="AM-Home" clip-path="url(#clip0_16407_8317)">
<rect width="1440" height="5849.93" transform="translate(-28.4209 -4907)" fill="#0D0D0D"/>
<g id="Frame 26086907">
<g id="Frame 26086909">
<path id="Union" d="M879.194 233C933.944 233 971.319 237.661 995.021 249.604C1006.91 255.594 1015.38 263.427 1020.88 273.432C1026.36 283.424 1028.82 295.503 1028.82 309.92C1028.82 316.978 1028.23 324.902 1027.36 333.095L1027.26 334.002L1026.35 333.988C1007.08 333.696 987.528 333.696 968.547 333.696C949.272 333.696 926.505 333.696 909.58 333.988L908.562 334.006V326.564C908.562 317.056 906.4 310.83 902.035 306.943C897.644 303.032 890.803 301.285 880.956 301.284C870.095 301.429 862.688 303.532 857.903 309.729C853.051 316.012 850.702 326.728 850.702 344.668C850.702 360.386 853.041 371.061 858.025 377.8C862.951 384.46 870.616 387.468 881.822 387.468C891.888 387.468 898.672 384.952 902.945 380.714C907.217 376.477 909.146 370.352 909.146 362.772C909.146 359.911 908.86 357.04 908.567 354.111L908.456 352.993L909.579 353.012C926.797 353.304 949.564 353.304 969.131 353.304C988.696 353.304 1008.25 353.304 1027.52 353.012L1028.44 352.998L1028.53 353.922C1029.11 360.372 1029.41 366.534 1029.41 372.116C1029.41 389.658 1026.75 404.218 1020.99 416.181C1015.22 428.16 1006.36 437.476 994.085 444.559C969.597 458.684 931.466 463.928 876.858 463.928C820.03 463.928 782.052 455.834 758.297 436.549C734.478 417.212 725.187 386.827 725.187 342.916C725.187 302.141 736.346 274.531 761.388 257.194C786.33 239.927 824.853 233 879.194 233ZM171.441 238.704C176.689 258.238 183.981 280.99 193.034 308.733L193.044 308.764L193.052 308.795C195.509 318.35 198.734 330.714 202.007 343.021C205.286 330.482 208.511 318.364 210.972 308.795L210.979 308.763L210.99 308.73C219.751 282.155 227.625 257.656 232.58 238.711L232.775 237.964H413.933L413.911 238.984C413.327 267.597 412.744 300.293 412.744 348.172C412.744 394.607 412.744 426.406 414.494 457.908L414.553 458.964H272.655L272.705 457.917C273.873 433.106 274.748 413.264 275.332 386.132L275.342 383.696C275.439 371.682 276.229 358.274 277.032 344.63L277.027 344.629C272.151 360.385 267.273 375.554 262.95 386.216L262.945 386.228L232.577 458.352L232.319 458.964H171.717L171.459 458.354L139.631 383.017L139.625 383.004L139.62 382.99C135.695 372.896 130.703 358.256 126.18 343.431C126.964 356.22 127.732 368.617 128.058 381.869L128.119 384.652L128.12 384.661C128.412 412.683 128.995 434.282 129.871 457.927L129.909 458.964H2.33984L2.38867 457.918C3.84752 426.407 4.13965 394.598 4.13965 348.172C4.13965 300.285 3.84775 267.599 2.68066 239.005L2.6377 237.964H171.242L171.441 238.704ZM680.418 238.739C687.424 269.097 722.161 402.203 741.997 457.627L742.476 458.964H604.6L604.568 457.996C604.283 449.151 603.154 435.793 601.181 420.128H544.53C542.268 435.807 540.86 449.161 540.575 457.996L540.544 458.964H414.66L415.113 457.641C434.077 402.21 467.938 268.518 473.771 238.771L473.929 237.964H680.239L680.418 238.739ZM1203.7 239.016C1202.26 266.751 1201.96 299.361 1201.95 333.74H1202.99C1209.35 322.197 1215.91 310.764 1221.39 300.683C1235.96 272.707 1243.53 252.9 1249.37 238.586L1249.63 237.964H1383.75L1382.85 239.476C1377.61 248.279 1372.21 258.76 1366.41 269.802C1360.61 280.83 1354.43 292.401 1347.65 303.329C1334.83 324.026 1319.77 342.606 1301.01 350.796C1314.94 353.97 1325.04 359.113 1332.72 365.968C1340.97 373.325 1346.37 382.59 1350.78 393.308C1370.07 430.134 1378.49 448.14 1384.02 457.453L1384.92 458.964H1265.48C1258.58 458.964 1253.7 458.237 1250.07 456.249C1246.41 454.239 1244.18 451.024 1242.38 446.412C1232.21 426.357 1217.53 396.444 1204.27 380.124H1201.96C1202.25 408.631 1202.55 434.273 1203.7 457.915L1203.75 458.964H1038.73L1038.77 457.928C1039.94 425.529 1040.52 395.174 1040.52 348.464C1040.52 302.046 1039.94 270.814 1038.77 239.001L1038.73 237.964H1203.76L1203.7 239.016ZM1221.33 404.193C1221.27 404.102 1221.22 404.01 1221.17 403.918C1221.22 404.01 1221.27 404.101 1221.33 404.193ZM1220.19 402.22C1220.11 402.086 1220.03 401.952 1219.95 401.818C1220.03 401.952 1220.11 402.086 1220.19 402.22ZM572.863 277.798C570.6 288.548 567.664 301.206 564.487 313.385C560.492 330.509 556.777 348.754 553.339 367.028H592.99C589.814 348.746 585.813 330.215 581.529 313.082H581.528C578.085 301.421 575.126 288.575 572.863 277.798ZM553.459 361.022L553.284 361.94C553.566 360.467 553.849 358.995 554.134 357.524C553.908 358.69 553.682 359.856 553.459 361.022ZM204.855 336.093L204.918 335.857C205.908 332.09 206.879 328.4 207.812 324.852C206.86 328.474 205.867 332.244 204.855 336.093ZM1208.43 326.003C1208.01 326.749 1207.59 327.497 1207.18 328.246C1208.05 326.687 1208.92 325.132 1209.78 323.586L1208.43 326.003ZM412.142 283.887C412.121 285.453 412.102 287.039 412.083 288.644C412.102 287.039 412.121 285.453 412.142 283.887ZM412.588 255.52C412.547 257.76 412.508 260.033 412.468 262.344C412.508 260.033 412.547 257.76 412.588 255.52ZM412.693 249.908C412.658 251.757 412.623 253.626 412.588 255.52C412.638 252.783 412.69 250.096 412.742 247.45C412.726 248.266 412.709 249.085 412.693 249.908ZM440.65 4.96387C439.774 41.1718 438.898 92.5636 438.898 124.1C438.898 143.08 447.659 151.548 468.099 151.548C488.247 151.548 495.839 143.08 495.839 124.1C495.839 92.5636 494.963 41.1718 494.671 4.96387H613.515C612.347 24.2359 612.055 43.508 612.055 72.124C612.055 89.352 612.639 117.092 612.639 134.028C612.639 202.064 582.854 229.22 465.179 229.22C347.503 229.22 317.719 202.064 317.719 134.028C317.719 117.092 318.303 89.352 318.303 72.124C318.303 43.508 317.719 24.2359 316.843 4.96387H440.65ZM1223.21 0C1335.92 0 1382.94 28.032 1382.94 109.792C1382.94 191.844 1342.64 228.928 1222.92 228.928C1103.49 228.928 1065.83 191.844 1065.83 109.792C1065.83 28.0321 1110.5 6.07456e-05 1223.21 0ZM263.384 4.96387C270.392 35.3319 305.14 168.484 324.996 223.964H189.508C189.216 214.912 188.048 201.188 186.004 185.128H127.604C125.268 201.188 123.808 214.912 123.516 223.964H0C18.98 168.484 52.8524 34.7479 58.6924 4.96387H263.384ZM791.181 4.96387C884.913 4.96387 924.625 23.9441 924.625 105.704C924.625 200.604 890.461 223.964 789.429 223.964H629.121C629.705 193.012 629.997 161.184 629.997 114.756C629.997 68.3279 629.705 35.0399 629.121 4.96387H791.181ZM1056.9 4.96387C1056.03 36.4999 1056.03 67.7439 1056.03 114.172C1056.03 160.308 1056.32 191.844 1056.9 223.964H933.972C934.848 192.136 934.848 160.892 934.848 114.464C934.848 68.0359 934.848 36.4999 933.972 4.96387H1056.9ZM1223.5 66.2842C1199.27 66.2843 1189.63 77.0882 1189.63 109.5C1189.63 143.664 1199.27 155.928 1223.5 155.928C1247.74 155.928 1257.38 143.372 1257.38 109.5C1257.38 77.088 1247.74 66.2842 1223.5 66.2842ZM773.661 65.9922C764.901 65.9922 756.433 66.2842 747.965 66.5762C747.673 81.7601 747.381 97.82 747.381 113.296V154.176C756.141 155.052 764.317 155.052 773.661 155.052C794.685 155.052 804.321 147.168 804.321 109.792C804.321 73 794.977 65.9922 773.661 65.9922ZM156.512 40.2959C154.176 51.6839 150.964 65.6999 147.46 79.1318C143.372 96.6518 139.576 115.34 136.072 134.028H178.12C174.908 115.34 170.82 96.3598 166.44 78.8398C162.644 65.9918 159.432 51.6839 157.096 40.2959H156.512Z" fill="white"/>
</g>
</g>
</g>
<defs>
<clipPath id="clip0_16407_8317">
<rect width="1440" height="5849.93" fill="white" transform="translate(-28.4209 -4907)"/>
</clipPath>
</defs>
</svg>
